HIERARCHY
ROOT root
{
	OFFSET	0	13.1	24.9
	CHANNELS 6  Xposition Yposition Zposition Xrotation Yrotation Zrotation
	JOINT spine_1
	{
		OFFSET	0	9.99999	0
		CHANNELS 3  Xrotation Yrotation Zrotation
		JOINT spine_2
		{
			OFFSET	0	112	-10
			CHANNELS 3  Xrotation Yrotation Zrotation
			JOINT spine_3
			{
				OFFSET	0	206.5	19.3
				CHANNELS 3  Xrotation Yrotation Zrotation
				JOINT spine_4
				{
					OFFSET	0	110.4	14.6
					CHANNELS 3  Xrotation Yrotation Zrotation
					JOINT neck_1
					{
						OFFSET	0	71.8	-50.3
						CHANNELS 3  Xrotation Yrotation Zrotation
						JOINT neck_2
						{
							OFFSET	0	86.2	-25.8
							CHANNELS 3  Xrotation Yrotation Zrotation
							JOINT head_ee
							{
								OFFSET	0	179.8	-8.7
								CHANNELS 3  Xrotation Yrotation Zrotation
								End Site
								{
									OFFSET	1	0	0
								}
							}
						}
					}
					JOINT left_clavicle
					{
						OFFSET	-43.2	22.4	-70.8
						CHANNELS 3  Xrotation Yrotation Zrotation
						JOINT left_shoulder
						{
							OFFSET	-93.9	-5.79999	48.7
							CHANNELS 3  Xrotation Yrotation Zrotation
							JOINT left_elbow
							{
								OFFSET	-291.4	-30.8	15.2
								CHANNELS 3  Xrotation Yrotation Zrotation
								JOINT left_lowarm_twist
								{
									OFFSET	-110.7	-3.89999	13.6
									CHANNELS 3  Xrotation Yrotation Zrotation
									JOINT left_hand
									{
										OFFSET	-110.7	-3.89999	13.6
										CHANNELS 3  Xrotation Yrotation Zrotation
										JOINT left_ee
										{
											OFFSET	-80.8	-5.10001	12.1
											CHANNELS 3  Xrotation Yrotation Zrotation
											End Site
											{
												OFFSET	1	0	0
											}
										}
									}
								}
							}
						}
					}
					JOINT right_clavicle
					{
						OFFSET	43.2	22.4	-70.8
						CHANNELS 3  Xrotation Yrotation Zrotation
						JOINT right_shoulder
						{
							OFFSET	93.9	-5.79999	48.7
							CHANNELS 3  Xrotation Yrotation Zrotation
							JOINT right_elbow
							{
								OFFSET	291.4	-30.8	15.2
								CHANNELS 3  Xrotation Yrotation Zrotation
								JOINT right_lowarm_twist
								{
									OFFSET	110.7	-3.89999	13.6
									CHANNELS 3  Xrotation Yrotation Zrotation
									JOINT right_hand
									{
										OFFSET	110.7	-3.89999	13.6
										CHANNELS 3  Xrotation Yrotation Zrotation
										JOINT right_ee
										{
											OFFSET	80.8	-5.10001	12.1
											CHANNELS 3  Xrotation Yrotation Zrotation
											End Site
											{
												OFFSET	1	0	0
											}
										}
									}
								}
							}
						}
					}
				}
			}
		}
	}
	JOINT left_hip
	{
		OFFSET	-82.8	-127.5	0.300001
		CHANNELS 3  Xrotation Yrotation Zrotation
		JOINT left_knee
		{
			OFFSET	-28.2	-396.7	2.2
			CHANNELS 3  Xrotation Yrotation Zrotation
			JOINT left_ankle
			{
				OFFSET	-11.7	-411.3	35.4
				CHANNELS 3  Xrotation Yrotation Zrotation
				JOINT left_toes
				{
					OFFSET	0	-60	-88.6
					CHANNELS 3  Xrotation Yrotation Zrotation
					JOINT left_foot_ee
					{
						OFFSET	-22.5	-16.5	-42.2
						CHANNELS 3  Xrotation Yrotation Zrotation
						End Site
						{
							OFFSET	1	0	0
						}
					}
				}
			}
		}
	}
	JOINT right_hip
	{
		OFFSET	82.8	-127.5	0.300001
		CHANNELS 3  Xrotation Yrotation Zrotation
		JOINT right_knee
		{
			OFFSET	28.2	-396.7	2.2
			CHANNELS 3  Xrotation Yrotation Zrotation
			JOINT right_ankle
			{
				OFFSET	11.7	-411.3	35.4
				CHANNELS 3  Xrotation Yrotation Zrotation
				JOINT right_toes
				{
					OFFSET	0	-60	-88.6
					CHANNELS 3  Xrotation Yrotation Zrotation
					JOINT right_foot_ee
					{
						OFFSET	22.5	-16.5	-42.2
						CHANNELS 3  Xrotation Yrotation Zrotation
						End Site
						{
							OFFSET	1	0	0
						}
					}
				}
			}
		}
	}
}
MOTION
Frames: 15
Frame Time: 0.02
1132.71839374 725.237 -1680.09382738 -5.98289615341 43.8451772013 1.59717668471 3.57348 -0.038434 -0.269403 3.57352 -0.0212134 -0.271302 3.57361 0.0194007 -0.271438 3.5735 -0.0237112 -0.271096 -6.15139 8.30031 -3.1255 -6.07647 17.6445 -1.57721 -0.0 0.0 -0.0 1.42461 21.9995 4.56491 -24.4119 -11.374 71.5404 0.98164 -25.932 0.226021 -41.8286 -3.1477 4.18887 3.18265 22.0413 28.7625 -0.0 0.0 -0.0 8.16951 12.5034 -15.7862 11.9839 -13.1126 -68.752 0.403702 11.3092 -0.0399718 -47.3369 3.76303 -4.53642 1.94287 -22.2353 -20.6918 0.0 0.0 0.0 22.5492 -4.97443 5.37782 -51.7788 -1.3806 7.56002 28.8979 21.6148 -3.90788 19.6145 -0.0 -0.0 -0.0 0.0 -0.0 12.7521 29.5954 -2.90265 -7.13701 -0.227382 -1.07101 33.7316 -27.1335 4.58814 9.61263 -0.0 -0.0 0.0 0.0 0.0 
1113.75835209 727.018 -1693.92641102 -6.40812325046 45.9005203232 2.76592656712 3.58684 0.0963988 -0.446351 3.58694 0.124606 -0.439313 3.58593 0.188515 -0.415914 3.58571 0.120464 -0.440466 -3.8728 8.24305 -4.60286 -3.65725 18.5776 -3.48031 -0.0 0.0 -0.0 1.41203 23.4391 4.64613 -23.2032 -12.1231 70.3501 0.745583 -20.2712 0.133288 -42.743 -3.2475 4.25063 3.13831 22.5169 28.5634 -0.0 0.0 -0.0 8.14144 12.4451 -15.7279 13.4428 -12.9806 -68.5157 0.475365 13.2509 -0.0552159 -44.0905 3.39631 -4.33872 2.64369 -22.017 -25.1441 0.0 0.0 0.0 24.5855 -3.93637 3.32916 -54.9465 -1.67972 7.94566 27.9048 21.6097 -3.79281 19.6358 -0.0 -0.0 -0.0 0.0 -0.0 12.1937 29.1805 -3.68894 -7.76902 -0.24105 -1.16703 33.3075 -25.1869 4.48454 11.5 -0.0 -0.0 0.0 0.0 0.0 
1101.3380704 728.17 -1706.22596978 -6.73075298276 47.6610048645 3.89365787165 3.72372 0.151787 -0.653046 3.72394 0.193034 -0.642065 3.72166 0.284889 -0.606918 3.72119 0.185464 -0.644292 -3.84879 8.23221 -5.9806 -3.56117 19.6073 -4.92531 -0.0 0.0 -0.0 1.70572 23.6618 5.06241 -21.4763 -10.7197 68.6357 0.526118 -14.6079 0.0674345 -42.8287 -3.2569 4.25634 3.24512 22.2156 29.2282 -0.0 0.0 -0.0 8.31074 12.6366 -16.0862 14.7181 -13.2252 -68.368 0.543838 15.0778 -0.0719737 -41.6619 3.12961 -4.17745 3.07118 -20.3279 -27.6066 0.0 0.0 0.0 28.2838 -4.23587 1.34779 -56.6676 -1.8511 8.14818 25.7984 22.9645 -3.56691 18.8511 -0.0 -0.0 -0.0 0.0 -0.0 11.9251 28.7925 -4.9443 -8.02833 -0.246351 -1.20647 31.0477 -25.9094 4.25093 11.3623 -0.0 -0.0 0.0 0.0 0.0 
1089.45438947 726.463 -1711.55379913 -7.58073861775 49.51500785 5.93827451964 3.75906 0.15315 -0.780888 3.75938 0.202528 -0.769561 3.75648 0.312494 -0.731842 3.75579 0.192995 -0.772007 -2.95977 8.29608 -6.32848 -2.60556 19.9849 -5.45174 -0.0 0.0 -0.0 1.35422 23.7064 4.58534 -21.3848 -9.63434 68.2008 0.60622 -16.7153 0.0890621 -41.0422 -3.06268 4.1345 3.85233 20.9841 33.2724 -0.0 0.0 -0.0 8.80142 11.7311 -17.1831 16.0194 -13.017 -68.0914 0.705612 19.2666 -0.119769 -37.6038 2.70001 -3.88331 4.09175 -18.4275 -34.5128 0.0 0.0 0.0 34.4703 -5.34483 -1.3941 -58.188 -2.00753 8.32279 23.6814 24.6797 -3.3372 18.1535 -0.0 -0.0 -0.0 0.0 -0.0 11.4671 26.9511 -7.0642 -6.43391 -0.210932 -0.964369 30.4894 -26.8596 4.21238 11.1529 -0.0 -0.0 0.0 0.0 0.0 
1079.71312682 726.651 -1721.31796581 -7.57774019607 49.8756755387 6.73665810777 3.70264 0.200261 -0.653426 3.70285 0.241434 -0.639359 3.70004 0.3326 -0.597034 3.69962 0.234138 -0.642067 -2.38443 8.44777 -6.76798 -1.96421 20.597 -6.01293 -0.0 0.0 -0.0 1.29484 23.7461 4.50716 -20.1746 -8.83728 67.0585 0.46066 -12.8548 0.0518949 -41.8294 -3.14778 4.18893 3.75397 22.9318 32.9349 -0.0 0.0 -0.0 8.93268 12.813 -17.4307 16.772 -13.1425 -68.2102 0.79594 21.5185 -0.151249 -35.4019 2.47596 -3.71125 4.49048 -17.739 -37.4577 0.0 0.0 0.0 37.8741 -6.13445 -2.81835 -59.2286 -2.11727 8.43991 21.5065 26.5611 -3.09381 17.0222 -0.0 -0.0 -0.0 0.0 -0.0 11.4559 25.7266 -8.58298 -7.46313 -0.234567 -1.12054 30.4517 -25.9762 4.18418 12.1421 -0.0 -0.0 0.0 0.0 0.0 
1053.14624307 721.062 -1743.11676727 -7.2933049376 53.0547163298 8.47436349077 3.61887 0.00793545 -0.599675 3.61907 0.0460775 -0.597955 3.61849 0.134105 -0.584542 3.61801 0.0401062 -0.598385 -1.69896 7.91072 -5.0408 -1.3845 18.2595 -4.35813 -0.0 0.0 -0.0 -0.145085 23.5811 2.52938 -21.1884 -5.51989 66.7823 0.517007 -14.3654 0.0651552 -39.5992 -2.90864 4.03173 4.38402 21.1826 37.3091 -0.0 0.0 -0.0 9.67573 13.1315 -19.0477 17.7104 -12.0867 -67.5821 1.10869 28.7752 -0.284415 -26.4303 1.63673 -2.92596 5.88354 -14.6743 -49.1296 0.0 0.0 0.0 42.6328 -11.8744 -4.43813 -56.534 -1.83758 8.13264 15.5248 23.816 -2.25179 14.3611 -0.0 -0.0 -0.0 0.0 -0.0 9.68297 20.8773 -11.093 -7.18127 -0.228374 -1.07773 35.1535 -25.7233 4.69936 11.5772 -0.0 -0.0 0.0 0.0 0.0 
1026.44740576 719.78 -1759.3663696 -10.1393460475 56.899908247 12.9135714961 3.48616 -0.342417 -0.929387 3.48659 -0.282587 -0.94929 3.4911 -0.136772 -0.980966 3.48987 -0.289974 -0.94706 -0.284054 6.72284 -3.48771 -0.0609271 14.8385 -3.02971 -0.0 0.0 -0.0 0.338042 22.9004 3.12093 -18.2316 -2.71347 67.0827 0.378177 -10.6109 0.0351188 -39.9784 -2.94886 4.0591 4.91978 21.7374 41.699 -0.0 0.0 -0.0 9.96036 12.8722 -19.6837 18.4735 -12.3509 -67.115 1.60437 38.4734 -0.559886 -18.0215 0.970801 -2.08039 6.6738 -12.8194 -57.4504 0.0 0.0 0.0 43.978 -16.8856 -5.86362 -47.1276 -0.981306 6.96566 1.34949 25.2088 -0.205665 9.52376 -0.0 -0.0 -0.0 0.0 -0.0 9.19735 16.8984 -13.3896 -7.44443 -0.234162 -1.1177 36.2993 -26.0685 4.83087 10.7936 -0.0 -0.0 0.0 0.0 0.0 
1019.93414133 719.78 -1751.25393736 -10.5150693293 58.210639702 13.3587592882 3.48616 -0.342417 -0.929387 3.48659 -0.282587 -0.94929 3.4911 -0.136772 -0.980966 3.48987 -0.289974 -0.94706 -0.284054 6.72284 -3.48771 -0.0609271 14.8385 -3.02971 -0.0 0.0 -0.0 0.338042 22.9004 3.12093 -18.2316 -2.71347 67.0827 0.378177 -10.6109 0.0351188 -39.9784 -2.94886 4.0591 4.91978 21.7374 41.699 -0.0 0.0 -0.0 9.96036 12.8722 -19.6837 18.4735 -12.3509 -67.115 1.60437 38.4734 -0.559886 -18.0215 0.970801 -2.08039 6.6738 -12.8194 -57.4504 0.0 0.0 0.0 43.978 -16.8856 -5.86362 -47.1276 -0.981306 6.96566 1.34949 25.2088 -0.205665 9.52376 -0.0 -0.0 -0.0 0.0 -0.0 9.19735 16.8984 -13.3896 -7.44443 -0.234162 -1.1177 36.2993 -26.0685 4.83087 10.7936 -0.0 -0.0 0.0 0.0 0.0 
1017.03368885 719.416 -1757.75785113 -11.7298199265 58.6957430775 15.2723932178 3.47864 -0.490911 -1.20556 3.47935 -0.413209 -1.23435 3.48798 -0.223056 -1.28241 3.48593 -0.422775 -1.2311 0.400624 6.08654 -2.61306 0.572282 12.9631 -2.22573 -0.0 0.0 -0.0 0.215087 22.998 2.96076 -16.685 -0.950786 67.2378 0.298371 -8.40789 0.0219317 -39.6595 -2.91502 4.03609 5.20814 22.1812 44.2169 -0.0 0.0 -0.0 10.2047 12.7452 -20.2278 19.1482 -12.2107 -65.6833 1.91813 43.5322 -0.765939 -14.1718 0.708979 -1.66297 7.0046 -12.3569 -61.7591 0.0 0.0 0.0 43.6564 -20.1692 -5.85966 -40.5403 -0.501497 6.07374 -5.72842 25.6434 0.88731 7.68554 -0.0 -0.0 -0.0 0.0 -0.0 9.49116 13.2713 -14.2745 -7.64814 -0.238518 -1.14866 37.3256 -25.9357 4.93283 9.97497 -0.0 -0.0 0.0 0.0 0.0 
1013.21420348 719.416 -1752.89082964 -11.9979662213 59.4603263501 15.5849589743 3.47864 -0.490911 -1.20556 3.47935 -0.413209 -1.23435 3.48798 -0.223056 -1.28241 3.48593 -0.422775 -1.2311 0.400624 6.08654 -2.61306 0.572282 12.9631 -2.22573 -0.0 0.0 -0.0 0.215087 22.998 2.96076 -16.685 -0.950786 67.2378 0.298371 -8.40789 0.0219317 -39.6595 -2.91502 4.03609 5.20814 22.1812 44.2169 -0.0 0.0 -0.0 10.2047 12.7452 -20.2278 19.1482 -12.2107 -65.6833 1.91813 43.5322 -0.765939 -14.1718 0.708979 -1.66297 7.0046 -12.3569 -61.7591 0.0 0.0 0.0 43.6564 -20.1692 -5.85966 -40.5403 -0.501497 6.07374 -5.72842 25.6434 0.88731 7.68554 -0.0 -0.0 -0.0 0.0 -0.0 9.49116 13.2713 -14.2745 -7.64814 -0.238518 -1.14866 37.3256 -25.9357 4.93283 9.97497 -0.0 -0.0 0.0 0.0 0.0 
998.763488038 722.033 -1768.04464956 -17.4001802706 60.2955573551 21.311743214 3.54633 -0.692223 -1.59503 3.54755 -0.589338 -1.63583 3.56389 -0.339215 -1.70532 3.56034 -0.604246 -1.63038 2.03438 3.98361 -1.35534 2.10894 8.13522 -1.17143 -0.0 0.0 -0.0 1.21488 22.3228 4.29282 -14.4716 0.295209 67.4757 0.236527 -6.68294 0.0138098 -39.2292 -2.86957 4.00475 5.30637 22.7613 45.151 -0.0 0.0 -0.0 10.2628 10.9793 -20.396 19.295 -14.47 -63.3342 2.14593 46.744 -0.92747 -8.53067 0.377484 -1.02218 7.53955 -11.0254 -70.3299 0.0 0.0 0.0 43.1545 -24.7846 -5.67288 -23.6034 0.235478 3.58893 -13.8739 24.4182 2.15805 2.31928 -0.0 -0.0 -0.0 0.0 -0.0 10.9791 9.88028 -14.4812 -8.36603 -0.252988 -1.25787 37.5162 -25.9828 4.95383 9.73788 -0.0 -0.0 0.0 0.0 0.0 
995.583127728 722.033 -1763.94441788 -17.7357966277 60.8930013429 21.6969877667 3.54633 -0.692223 -1.59503 3.54755 -0.589338 -1.63583 3.56389 -0.339215 -1.70532 3.56034 -0.604246 -1.63038 2.03438 3.98361 -1.35534 2.10894 8.13522 -1.17143 -0.0 0.0 -0.0 1.21488 22.3228 4.29282 -14.4716 0.295209 67.4757 0.236527 -6.68294 0.0138098 -39.2292 -2.86957 4.00475 5.30637 22.7613 45.151 -0.0 0.0 -0.0 10.2628 10.9793 -20.396 19.295 -14.47 -63.3342 2.14593 46.744 -0.92747 -8.53067 0.377484 -1.02218 7.53955 -11.0254 -70.3299 0.0 0.0 0.0 43.1545 -24.7846 -5.67288 -23.6034 0.235478 3.58893 -13.8739 24.4182 2.15805 2.31928 -0.0 -0.0 -0.0 0.0 -0.0 10.9791 9.88028 -14.4812 -8.36603 -0.252988 -1.25787 37.5162 -25.9828 4.95383 9.73788 -0.0 -0.0 0.0 0.0 0.0 
992.212807062 722.033 -1759.49592628 -18.1133380738 61.5342972684 22.1277567011 3.54633 -0.692223 -1.59503 3.54755 -0.589338 -1.63583 3.56389 -0.339215 -1.70532 3.56034 -0.604246 -1.63038 2.03438 3.98361 -1.35534 2.10894 8.13522 -1.17143 -0.0 0.0 -0.0 1.21488 22.3228 4.29282 -14.4716 0.295209 67.4757 0.236527 -6.68294 0.0138098 -39.2292 -2.86957 4.00475 5.30637 22.7613 45.151 -0.0 0.0 -0.0 10.2628 10.9793 -20.396 19.295 -14.47 -63.3342 2.14593 46.744 -0.92747 -8.53067 0.377484 -1.02218 7.53955 -11.0254 -70.3299 0.0 0.0 0.0 43.1545 -24.7846 -5.67288 -23.6034 0.235478 3.58893 -13.8739 24.4182 2.15805 2.31928 -0.0 -0.0 -0.0 0.0 -0.0 10.9791 9.88028 -14.4812 -8.36603 -0.252988 -1.25787 37.5162 -25.9828 4.95383 9.73788 -0.0 -0.0 0.0 0.0 0.0 
986.892230144 722.033 -1752.24452548 -18.760775703 62.5647477248 22.8606567798 3.54633 -0.692223 -1.59503 3.54755 -0.589338 -1.63583 3.56389 -0.339215 -1.70532 3.56034 -0.604246 -1.63038 2.03438 3.98361 -1.35534 2.10894 8.13522 -1.17143 -0.0 0.0 -0.0 1.21488 22.3228 4.29282 -14.4716 0.295209 67.4757 0.236527 -6.68294 0.0138098 -39.2292 -2.86957 4.00475 5.30637 22.7613 45.151 -0.0 0.0 -0.0 10.2628 10.9793 -20.396 19.295 -14.47 -63.3342 2.14593 46.744 -0.92747 -8.53067 0.377484 -1.02218 7.53955 -11.0254 -70.3299 0.0 0.0 0.0 43.1545 -24.7846 -5.67288 -23.6034 0.235478 3.58893 -13.8739 24.4182 2.15805 2.31928 -0.0 -0.0 -0.0 0.0 -0.0 10.9791 9.88028 -14.4812 -8.36603 -0.252988 -1.25787 37.5162 -25.9828 4.95383 9.73788 -0.0 -0.0 0.0 0.0 0.0 
877.169950693 697.767 -1851.18728075 -23.7262896964 59.300440547 29.3786550605 5.68478 -0.543399 -3.16073 5.69028 -0.341277 -3.18887 5.70344 0.0177854 -3.20701 5.68942 -0.488666 -3.16965 0.778903 -0.184616 3.11909 0.8189 -2.90979 3.36899 -0.0 0.0 -0.0 3.44261 24.333 7.45065 -12.1171 2.28968 67.0319 0.442123 -12.3538 0.0478498 -35.2749 -2.46324 3.70106 5.57668 26.3512 47.8472 -0.0 0.0 -0.0 10.0986 4.33248 -20.018 8.47157 -16.1405 -54.3386 1.67911 39.7497 -0.607033 6.35477 -0.180162 0.791329 7.58606 -13.5087 -73.0605 0.0 0.0 0.0 37.3479 -27.7116 -6.86967 -2.43922 0.0927187 0.362828 2.05971 23.2834 -0.310395 5.90416 -0.0 -0.0 -0.0 0.0 -0.0 6.88656 7.233 -15.0982 -14.0402 -0.319018 -2.12565 42.7854 -19.5262 5.26615 9.53482 -0.0 -0.0 0.0 0.0 0.0 
